<svg width="689" height="698" viewBox="0 0 689 698" fill="none" xmlns="http://www.w3.org/2000/svg">
<ellipse cx="344.5" cy="349" rx="344.5" ry="349" fill="#373FE8"/>
<path fill-rule="evenodd" clip-rule="evenodd" d="M358.184 22.5871C507.456 18.7926 634.702 116.324 670.539 236.375C700.382 336.349 595.102 415.27 492.935 473.993C399.865 527.487 282.608 566.094 189.153 513.063C89.1392 456.31 66.4849 347.426 99.7561 250.884C137.971 139.996 218.99 26.1253 358.184 22.5871Z" fill="#3A87F1" fill-opacity="0.2"/>
<path d="M267.8 344V315.2H285.4V320.64H273.24V326.88H283V332.32H273.24V344H267.8ZM298.465 344.6C296.252 344.6 294.298 344.127 292.605 343.18C290.925 342.22 289.605 340.907 288.645 339.24C287.698 337.56 287.225 335.64 287.225 333.48C287.225 331.12 287.692 329.067 288.625 327.32C289.558 325.573 290.845 324.22 292.485 323.26C294.125 322.287 296.012 321.8 298.145 321.8C300.412 321.8 302.338 322.333 303.925 323.4C305.512 324.467 306.685 325.967 307.445 327.9C308.205 329.833 308.472 332.107 308.245 334.72H302.865V332.72C302.865 330.52 302.512 328.94 301.805 327.98C301.112 327.007 299.972 326.52 298.385 326.52C296.532 326.52 295.165 327.087 294.285 328.22C293.418 329.34 292.985 331 292.985 333.2C292.985 335.213 293.418 336.773 294.285 337.88C295.165 338.973 296.452 339.52 298.145 339.52C299.212 339.52 300.125 339.287 300.885 338.82C301.645 338.353 302.225 337.68 302.625 336.8L308.065 338.36C307.252 340.333 305.965 341.867 304.205 342.96C302.458 344.053 300.545 344.6 298.465 344.6ZM291.305 334.72V330.68H305.625V334.72H291.305ZM318.37 344.6C316.824 344.6 315.51 344.307 314.43 343.72C313.364 343.12 312.55 342.327 311.99 341.34C311.444 340.34 311.17 339.24 311.17 338.04C311.17 337.04 311.324 336.127 311.63 335.3C311.937 334.473 312.43 333.747 313.11 333.12C313.804 332.48 314.73 331.947 315.89 331.52C316.69 331.227 317.644 330.967 318.75 330.74C319.857 330.513 321.11 330.3 322.51 330.1C323.91 329.887 325.45 329.653 327.13 329.4L325.17 330.48C325.17 329.2 324.864 328.26 324.25 327.66C323.637 327.06 322.61 326.76 321.17 326.76C320.37 326.76 319.537 326.953 318.67 327.34C317.804 327.727 317.197 328.413 316.85 329.4L311.93 327.84C312.477 326.053 313.504 324.6 315.01 323.48C316.517 322.36 318.57 321.8 321.17 321.8C323.077 321.8 324.77 322.093 326.25 322.68C327.73 323.267 328.85 324.28 329.61 325.72C330.037 326.52 330.29 327.32 330.37 328.12C330.45 328.92 330.49 329.813 330.49 330.8V344H325.73V339.56L326.41 340.48C325.357 341.933 324.217 342.987 322.99 343.64C321.777 344.28 320.237 344.6 318.37 344.6ZM319.53 340.32C320.53 340.32 321.37 340.147 322.05 339.8C322.744 339.44 323.29 339.033 323.69 338.58C324.104 338.127 324.384 337.747 324.53 337.44C324.81 336.853 324.97 336.173 325.01 335.4C325.064 334.613 325.09 333.96 325.09 333.44L326.69 333.84C325.077 334.107 323.77 334.333 322.77 334.52C321.77 334.693 320.964 334.853 320.35 335C319.737 335.147 319.197 335.307 318.73 335.48C318.197 335.693 317.764 335.927 317.43 336.18C317.11 336.42 316.87 336.687 316.71 336.98C316.564 337.273 316.49 337.6 316.49 337.96C316.49 338.453 316.61 338.88 316.85 339.24C317.104 339.587 317.457 339.853 317.91 340.04C318.364 340.227 318.904 340.32 319.53 340.32ZM348.651 344C347.157 344.28 345.691 344.4 344.251 344.36C342.824 344.333 341.544 344.087 340.411 343.62C339.291 343.14 338.437 342.373 337.851 341.32C337.317 340.333 337.037 339.333 337.011 338.32C336.984 337.293 336.971 336.133 336.971 334.84V316.4H342.411V334.52C342.411 335.36 342.417 336.12 342.431 336.8C342.457 337.467 342.597 338 342.851 338.4C343.331 339.16 344.097 339.573 345.151 339.64C346.204 339.707 347.371 339.653 348.651 339.48V344ZM333.291 326.6V322.4H348.651V326.6H333.291ZM361.504 344.64C359.811 344.64 358.431 344.353 357.364 343.78C356.297 343.207 355.464 342.48 354.864 341.6C354.277 340.72 353.857 339.807 353.604 338.86C353.351 337.9 353.197 337.027 353.144 336.24C353.091 335.453 353.064 334.88 353.064 334.52V322.4H358.584V332.6C358.584 333.093 358.611 333.727 358.664 334.5C358.717 335.26 358.884 336.027 359.164 336.8C359.444 337.573 359.897 338.22 360.524 338.74C361.164 339.26 362.064 339.52 363.224 339.52C363.691 339.52 364.191 339.447 364.724 339.3C365.257 339.153 365.757 338.873 366.224 338.46C366.691 338.033 367.071 337.413 367.364 336.6C367.671 335.773 367.824 334.693 367.824 333.36L370.944 334.84C370.944 336.547 370.597 338.147 369.904 339.64C369.211 341.133 368.164 342.34 366.764 343.26C365.377 344.18 363.624 344.64 361.504 344.64ZM368.504 344V336.84H367.824V322.4H373.304V344H368.504ZM378.894 344V322.4H383.694V327.68L383.174 327C383.454 326.253 383.827 325.573 384.294 324.96C384.76 324.347 385.334 323.84 386.014 323.44C386.534 323.12 387.1 322.873 387.714 322.7C388.327 322.513 388.96 322.4 389.614 322.36C390.267 322.307 390.92 322.32 391.574 322.4V327.48C390.974 327.293 390.274 327.233 389.474 327.3C388.687 327.353 387.974 327.533 387.334 327.84C386.694 328.133 386.154 328.527 385.714 329.02C385.274 329.5 384.94 330.073 384.714 330.74C384.487 331.393 384.374 332.133 384.374 332.96V344H378.894ZM405.028 344.6C402.814 344.6 400.861 344.127 399.168 343.18C397.488 342.22 396.168 340.907 395.208 339.24C394.261 337.56 393.788 335.64 393.788 333.48C393.788 331.12 394.254 329.067 395.188 327.32C396.121 325.573 397.408 324.22 399.048 323.26C400.688 322.287 402.574 321.8 404.708 321.8C406.974 321.8 408.901 322.333 410.488 323.4C412.074 324.467 413.248 325.967 414.008 327.9C414.768 329.833 415.034 332.107 414.808 334.72H409.428V332.72C409.428 330.52 409.074 328.94 408.368 327.98C407.674 327.007 406.534 326.52 404.948 326.52C403.094 326.52 401.728 327.087 400.848 328.22C399.981 329.34 399.548 331 399.548 333.2C399.548 335.213 399.981 336.773 400.848 337.88C401.728 338.973 403.014 339.52 404.708 339.52C405.774 339.52 406.688 339.287 407.448 338.82C408.208 338.353 408.788 337.68 409.188 336.8L414.628 338.36C413.814 340.333 412.528 341.867 410.768 342.96C409.021 344.053 407.108 344.6 405.028 344.6ZM397.868 334.72V330.68H412.188V334.72H397.868ZM427.763 344.6C425.043 344.6 422.843 343.987 421.163 342.76C419.497 341.52 418.483 339.773 418.123 337.52L423.683 336.68C423.91 337.693 424.41 338.487 425.183 339.06C425.97 339.633 426.963 339.92 428.163 339.92C429.15 339.92 429.91 339.733 430.443 339.36C430.977 338.973 431.243 338.44 431.243 337.76C431.243 337.333 431.137 336.993 430.923 336.74C430.71 336.473 430.23 336.213 429.483 335.96C428.75 335.707 427.603 335.373 426.043 334.96C424.283 334.507 422.877 334 421.823 333.44C420.77 332.88 420.01 332.213 419.543 331.44C419.077 330.653 418.843 329.707 418.843 328.6C418.843 327.213 419.197 326.013 419.903 325C420.61 323.973 421.603 323.187 422.883 322.64C424.177 322.08 425.697 321.8 427.443 321.8C429.137 321.8 430.637 322.06 431.943 322.58C433.25 323.1 434.303 323.84 435.103 324.8C435.917 325.76 436.417 326.893 436.603 328.2L431.043 329.2C430.95 328.4 430.603 327.767 430.003 327.3C429.403 326.833 428.59 326.56 427.563 326.48C426.563 326.413 425.757 326.547 425.143 326.88C424.543 327.213 424.243 327.693 424.243 328.32C424.243 328.693 424.37 329.007 424.623 329.26C424.89 329.513 425.43 329.773 426.243 330.04C427.07 330.307 428.323 330.653 430.003 331.08C431.643 331.507 432.957 332.007 433.943 332.58C434.943 333.14 435.67 333.82 436.123 334.62C436.577 335.407 436.803 336.36 436.803 337.48C436.803 339.693 436.003 341.433 434.403 342.7C432.803 343.967 430.59 344.6 427.763 344.6Z" fill="white"/>
</svg>
