<svg width="72" height="54" viewBox="0 0 72 54" fill="none" xmlns="http://www.w3.org/2000/svg">
<path fill-rule="evenodd" clip-rule="evenodd" d="M39.1319 2.06123C43.5373 1.10403 48.0558 0.319914 52.5249 1.01446C57.5642 1.79761 63.4028 2.69093 66.4315 6.30383C69.4782 9.93818 67.1747 15.1439 68.0891 19.5807C68.9584 23.799 71.6983 27.592 71.7019 31.8784C71.7058 36.6323 71.4743 41.8744 68.1106 45.6058C64.7468 49.3375 58.9159 50.545 53.6963 51.8527C48.9547 53.0406 43.8536 54.1137 39.1319 52.8659C34.6061 51.6699 32.8912 45.9778 28.2636 45.1318C21.4998 43.8953 12.2079 51.91 7.92629 47.161C3.63151 42.3974 16.2546 36.1656 14.8254 30.2267C13.4338 24.4437 0.351992 23.6096 0.840488 17.715C1.286 12.3392 10.9722 11.8938 16.5358 9.58844C20.3996 7.9874 24.6027 7.5442 28.598 6.2133C32.2427 4.99917 35.3472 2.88358 39.1319 2.06123Z" fill="#D7DAFD"/>
</svg>
