<svg width="1440" height="793" viewBox="0 0 1440 793" fill="none" xmlns="http://www.w3.org/2000/svg">
<path d="M0 370.044L1440 0V450.956L0 821V370.044Z" fill="#0072FF" fill-opacity="0.4"/>
<ellipse cx="734.5" cy="382" rx="344.5" ry="349" fill="#373FE8"/>
<path fill-rule="evenodd" clip-rule="evenodd" d="M748.184 55.587C897.456 51.7925 1024.7 149.324 1060.54 269.375C1090.38 369.349 985.102 448.27 882.935 506.993C789.865 560.487 672.608 599.094 579.153 546.062C479.139 489.31 456.485 380.426 489.756 283.884C527.971 172.996 608.99 59.1252 748.184 55.587Z" fill="#3A87F1" fill-opacity="0.2"/>
<path d="M657.8 377V348.2H675.4V353.64H663.24V359.88H673V365.32H663.24V377H657.8ZM688.465 377.6C686.252 377.6 684.298 377.127 682.605 376.18C680.925 375.22 679.605 373.907 678.645 372.24C677.698 370.56 677.225 368.64 677.225 366.48C677.225 364.12 677.692 362.067 678.625 360.32C679.558 358.573 680.845 357.22 682.485 356.26C684.125 355.287 686.012 354.8 688.145 354.8C690.412 354.8 692.338 355.333 693.925 356.4C695.512 357.467 696.685 358.967 697.445 360.9C698.205 362.833 698.472 365.107 698.245 367.72H692.865V365.72C692.865 363.52 692.512 361.94 691.805 360.98C691.112 360.007 689.972 359.52 688.385 359.52C686.532 359.52 685.165 360.087 684.285 361.22C683.418 362.34 682.985 364 682.985 366.2C682.985 368.213 683.418 369.773 684.285 370.88C685.165 371.973 686.452 372.52 688.145 372.52C689.212 372.52 690.125 372.287 690.885 371.82C691.645 371.353 692.225 370.68 692.625 369.8L698.065 371.36C697.252 373.333 695.965 374.867 694.205 375.96C692.458 377.053 690.545 377.6 688.465 377.6ZM681.305 367.72V363.68H695.625V367.72H681.305ZM708.37 377.6C706.824 377.6 705.51 377.307 704.43 376.72C703.364 376.12 702.55 375.327 701.99 374.34C701.444 373.34 701.17 372.24 701.17 371.04C701.17 370.04 701.324 369.127 701.63 368.3C701.937 367.473 702.43 366.747 703.11 366.12C703.804 365.48 704.73 364.947 705.89 364.52C706.69 364.227 707.644 363.967 708.75 363.74C709.857 363.513 711.11 363.3 712.51 363.1C713.91 362.887 715.45 362.653 717.13 362.4L715.17 363.48C715.17 362.2 714.864 361.26 714.25 360.66C713.637 360.06 712.61 359.76 711.17 359.76C710.37 359.76 709.537 359.953 708.67 360.34C707.804 360.727 707.197 361.413 706.85 362.4L701.93 360.84C702.477 359.053 703.504 357.6 705.01 356.48C706.517 355.36 708.57 354.8 711.17 354.8C713.077 354.8 714.77 355.093 716.25 355.68C717.73 356.267 718.85 357.28 719.61 358.72C720.037 359.52 720.29 360.32 720.37 361.12C720.45 361.92 720.49 362.813 720.49 363.8V377H715.73V372.56L716.41 373.48C715.357 374.933 714.217 375.987 712.99 376.64C711.777 377.28 710.237 377.6 708.37 377.6ZM709.53 373.32C710.53 373.32 711.37 373.147 712.05 372.8C712.744 372.44 713.29 372.033 713.69 371.58C714.104 371.127 714.384 370.747 714.53 370.44C714.81 369.853 714.97 369.173 715.01 368.4C715.064 367.613 715.09 366.96 715.09 366.44L716.69 366.84C715.077 367.107 713.77 367.333 712.77 367.52C711.77 367.693 710.964 367.853 710.35 368C709.737 368.147 709.197 368.307 708.73 368.48C708.197 368.693 707.764 368.927 707.43 369.18C707.11 369.42 706.87 369.687 706.71 369.98C706.564 370.273 706.49 370.6 706.49 370.96C706.49 371.453 706.61 371.88 706.85 372.24C707.104 372.587 707.457 372.853 707.91 373.04C708.364 373.227 708.904 373.32 709.53 373.32ZM738.651 377C737.157 377.28 735.691 377.4 734.251 377.36C732.824 377.333 731.544 377.087 730.411 376.62C729.291 376.14 728.437 375.373 727.851 374.32C727.317 373.333 727.037 372.333 727.011 371.32C726.984 370.293 726.971 369.133 726.971 367.84V349.4H732.411V367.52C732.411 368.36 732.417 369.12 732.431 369.8C732.457 370.467 732.597 371 732.851 371.4C733.331 372.16 734.097 372.573 735.151 372.64C736.204 372.707 737.371 372.653 738.651 372.48V377ZM723.291 359.6V355.4H738.651V359.6H723.291ZM751.504 377.64C749.811 377.64 748.431 377.353 747.364 376.78C746.297 376.207 745.464 375.48 744.864 374.6C744.277 373.72 743.857 372.807 743.604 371.86C743.351 370.9 743.197 370.027 743.144 369.24C743.091 368.453 743.064 367.88 743.064 367.52V355.4H748.584V365.6C748.584 366.093 748.611 366.727 748.664 367.5C748.717 368.26 748.884 369.027 749.164 369.8C749.444 370.573 749.897 371.22 750.524 371.74C751.164 372.26 752.064 372.52 753.224 372.52C753.691 372.52 754.191 372.447 754.724 372.3C755.257 372.153 755.757 371.873 756.224 371.46C756.691 371.033 757.071 370.413 757.364 369.6C757.671 368.773 757.824 367.693 757.824 366.36L760.944 367.84C760.944 369.547 760.597 371.147 759.904 372.64C759.211 374.133 758.164 375.34 756.764 376.26C755.377 377.18 753.624 377.64 751.504 377.64ZM758.504 377V369.84H757.824V355.4H763.304V377H758.504ZM768.894 377V355.4H773.694V360.68L773.174 360C773.454 359.253 773.827 358.573 774.294 357.96C774.76 357.347 775.334 356.84 776.014 356.44C776.534 356.12 777.1 355.873 777.714 355.7C778.327 355.513 778.96 355.4 779.614 355.36C780.267 355.307 780.92 355.32 781.574 355.4V360.48C780.974 360.293 780.274 360.233 779.474 360.3C778.687 360.353 777.974 360.533 777.334 360.84C776.694 361.133 776.154 361.527 775.714 362.02C775.274 362.5 774.94 363.073 774.714 363.74C774.487 364.393 774.374 365.133 774.374 365.96V377H768.894ZM795.028 377.6C792.814 377.6 790.861 377.127 789.168 376.18C787.488 375.22 786.168 373.907 785.208 372.24C784.261 370.56 783.788 368.64 783.788 366.48C783.788 364.12 784.254 362.067 785.188 360.32C786.121 358.573 787.408 357.22 789.048 356.26C790.688 355.287 792.574 354.8 794.708 354.8C796.974 354.8 798.901 355.333 800.488 356.4C802.074 357.467 803.248 358.967 804.008 360.9C804.768 362.833 805.034 365.107 804.808 367.72H799.428V365.72C799.428 363.52 799.074 361.94 798.368 360.98C797.674 360.007 796.534 359.52 794.948 359.52C793.094 359.52 791.728 360.087 790.848 361.22C789.981 362.34 789.548 364 789.548 366.2C789.548 368.213 789.981 369.773 790.848 370.88C791.728 371.973 793.014 372.52 794.708 372.52C795.774 372.52 796.688 372.287 797.448 371.82C798.208 371.353 798.788 370.68 799.188 369.8L804.628 371.36C803.814 373.333 802.528 374.867 800.768 375.96C799.021 377.053 797.108 377.6 795.028 377.6ZM787.868 367.72V363.68H802.188V367.72H787.868ZM817.763 377.6C815.043 377.6 812.843 376.987 811.163 375.76C809.497 374.52 808.483 372.773 808.123 370.52L813.683 369.68C813.91 370.693 814.41 371.487 815.183 372.06C815.97 372.633 816.963 372.92 818.163 372.92C819.15 372.92 819.91 372.733 820.443 372.36C820.977 371.973 821.243 371.44 821.243 370.76C821.243 370.333 821.137 369.993 820.923 369.74C820.71 369.473 820.23 369.213 819.483 368.96C818.75 368.707 817.603 368.373 816.043 367.96C814.283 367.507 812.877 367 811.823 366.44C810.77 365.88 810.01 365.213 809.543 364.44C809.077 363.653 808.843 362.707 808.843 361.6C808.843 360.213 809.197 359.013 809.903 358C810.61 356.973 811.603 356.187 812.883 355.64C814.177 355.08 815.697 354.8 817.443 354.8C819.137 354.8 820.637 355.06 821.943 355.58C823.25 356.1 824.303 356.84 825.103 357.8C825.917 358.76 826.417 359.893 826.603 361.2L821.043 362.2C820.95 361.4 820.603 360.767 820.003 360.3C819.403 359.833 818.59 359.56 817.563 359.48C816.563 359.413 815.757 359.547 815.143 359.88C814.543 360.213 814.243 360.693 814.243 361.32C814.243 361.693 814.37 362.007 814.623 362.26C814.89 362.513 815.43 362.773 816.243 363.04C817.07 363.307 818.323 363.653 820.003 364.08C821.643 364.507 822.957 365.007 823.943 365.58C824.943 366.14 825.67 366.82 826.123 367.62C826.577 368.407 826.803 369.36 826.803 370.48C826.803 372.693 826.003 374.433 824.403 375.7C822.803 376.967 820.59 377.6 817.763 377.6Z" fill="white"/>
</svg>
