<svg width="72" height="54" viewBox="0 0 72 54" fill="none" xmlns="http://www.w3.org/2000/svg">
<path fill-rule="evenodd" clip-rule="evenodd" d="M39.1319 2.06111C43.5373 1.1039 48.0558 0.319792 52.5249 1.01434C57.5642 1.79749 63.4028 2.69081 66.4315 6.30371C69.4782 9.93806 67.1747 15.1438 68.0891 19.5806C68.9584 23.7989 71.6983 27.5918 71.7019 31.8783C71.7058 36.6322 71.4743 41.8742 68.1106 45.6057C64.7468 49.3373 58.9159 50.5449 53.6963 51.8526C48.9547 53.0405 43.8536 54.1135 39.1319 52.8658C34.6061 51.6698 32.8912 45.9777 28.2636 45.1317C21.4998 43.8952 12.2079 51.9099 7.92629 47.1609C3.63151 42.3973 16.2546 36.1655 14.8254 30.2266C13.4338 24.4436 0.351992 23.6094 0.840488 17.7149C1.286 12.3391 10.9722 11.8937 16.5358 9.58832C20.3996 7.98727 24.6027 7.54408 28.598 6.21317C32.2427 4.99905 35.3472 2.88345 39.1319 2.06111Z" fill="#D7DAFD"/>
<path d="M52.575 32.3975C52.1329 30.0397 49.7514 28.3498 47.0383 28.4658C44.3253 28.5818 42.1434 30.4724 41.9687 32.8553C36.4962 32.7048 34.5532 31.5792 34.8705 29.2904C34.9882 28.4344 35.5764 27.9767 36.6567 27.7541C37.3126 27.6192 38.0399 27.6004 38.6995 27.6537C38.7601 27.66 38.8243 27.6631 38.8849 27.6694C39.2877 27.7541 39.6977 27.8262 40.1077 27.8826C41.3234 28.0582 42.5605 28.146 43.737 28.0895C47.0454 27.9328 49.2986 26.6504 49.4127 23.929C49.5232 21.2921 47.4626 19.4235 44.1399 18.1725C43.0739 17.7712 41.9437 17.4608 40.8136 17.2256C40.3038 17.119 39.876 17.0469 39.5587 16.9999C39.277 14.6201 37.0096 12.8048 34.2894 12.786C31.5692 12.7672 29.2662 14.5449 28.9382 16.9215C28.6102 19.2981 30.3642 21.5085 33.0095 22.0603C35.6549 22.6121 38.3537 21.3298 39.2735 19.0786C39.6086 19.1319 39.9401 19.1915 40.2717 19.2604C41.2771 19.4674 42.2824 19.7433 43.2094 20.0944C45.7299 21.0413 47.1061 22.2923 47.0419 23.8537C46.9848 25.2521 45.844 25.8979 43.6122 26.0046C42.6318 26.0516 41.5587 25.9763 40.4999 25.8227C40.204 25.7788 39.933 25.7349 39.6942 25.6879C39.5551 25.6628 39.4589 25.6409 39.4161 25.6314L39.3056 25.6126C39.2271 25.6032 39.0952 25.5876 38.9241 25.5719C38.0328 25.4998 37.0667 25.5248 36.1255 25.7161C34.1575 26.1206 32.7778 27.196 32.5211 29.0333C31.9614 32.9901 35.3233 34.8243 42.3609 34.9559C43.3983 37.1632 46.1542 38.339 48.7638 37.6837C51.3771 37.0284 53.017 34.7553 52.575 32.3975ZM34.2359 20.1007C33.8459 20.1007 33.4597 20.0331 33.0994 19.9018C32.7391 19.7706 32.4117 19.5781 32.1359 19.3356C31.8602 19.093 31.6414 18.8051 31.4922 18.4882C31.343 18.1713 31.2662 17.8317 31.2662 17.4887C31.2662 17.1457 31.3431 16.806 31.4923 16.4892C31.6416 16.1723 31.8604 15.8843 32.1362 15.6418C32.412 15.3993 32.7394 15.2069 33.0997 15.0757C33.4601 14.9444 33.8463 14.8769 34.2363 14.8769C35.024 14.877 35.7794 15.1522 36.3363 15.642C36.8932 16.1319 37.2061 16.7963 37.206 17.489C37.206 18.1817 36.8931 18.846 36.3361 19.3358C35.779 19.8256 35.0236 20.1008 34.2359 20.1007ZM47.3021 35.7711C46.9121 35.7711 46.5259 35.7035 46.1656 35.5722C45.8053 35.441 45.4779 35.2486 45.2021 35.006C44.9264 34.7635 44.7076 34.4755 44.5584 34.1586C44.4092 33.8417 44.3324 33.5021 44.3324 33.1591C44.3324 32.8161 44.4093 32.4764 44.5585 32.1596C44.7078 31.8427 44.9266 31.5548 45.2024 31.3122C45.4782 31.0697 45.8056 30.8773 46.1659 30.7461C46.5263 30.6149 46.9125 30.5473 47.3025 30.5473C48.0902 30.5474 48.8456 30.8226 49.4025 31.3125C49.9594 31.8023 50.2723 32.4667 50.2722 33.1594C50.2722 33.8521 49.9593 34.5164 49.4022 35.0062C48.8452 35.496 48.0898 35.7712 47.3021 35.7711Z" fill="black"/>
</svg>
