<svg width="33" height="29" viewBox="0 0 33 29" fill="none" xmlns="http://www.w3.org/2000/svg">
<path d="M28.575 21.3976C28.1329 19.0398 25.7514 17.3498 23.0383 17.4659C20.3253 17.5819 18.1434 19.4725 17.9687 21.8553C12.4962 21.7048 10.5532 20.5792 10.8705 18.2904C10.9882 17.4345 11.5764 16.9767 12.6567 16.7541C13.3126 16.6193 14.0399 16.6005 14.6995 16.6538C14.7601 16.6601 14.8243 16.6632 14.8849 16.6695C15.2877 16.7541 15.6977 16.8262 16.1077 16.8827C17.3234 17.0583 18.5605 17.146 19.737 17.0896C23.0454 16.9328 25.2986 15.6505 25.4127 12.929C25.5232 10.2922 23.4626 8.42354 20.1399 7.17254C19.0739 6.77122 17.9437 6.46082 16.8136 6.22567C16.3038 6.11907 15.876 6.04696 15.5587 5.99993C15.277 3.62021 13.0096 1.80485 10.2894 1.78604C7.56922 1.76722 5.26615 3.54496 4.93816 5.92154C4.61017 8.29813 6.36421 10.5085 9.00954 11.0604C11.6549 11.6122 14.3537 10.3298 15.2735 8.07866C15.6086 8.13196 15.9401 8.19153 16.2717 8.26051C17.2771 8.46744 18.2824 8.74335 19.2094 9.0945C21.7299 10.0414 23.1061 11.2924 23.0419 12.8538C22.9848 14.2521 21.844 14.898 19.6122 15.0046C18.6318 15.0516 17.5587 14.9764 16.4999 14.8228C16.204 14.7789 15.933 14.735 15.6942 14.6879C15.5551 14.6629 15.4589 14.6409 15.4161 14.6315L15.3056 14.6127C15.2271 14.6033 15.0952 14.5876 14.9241 14.5719C14.0328 14.4998 13.0667 14.5249 12.1255 14.7162C10.1575 15.1206 8.7778 16.196 8.52111 18.0333C7.96139 21.9901 11.3233 23.8243 18.3609 23.956C19.3983 26.1633 22.1542 27.339 24.7638 26.6837C27.3771 26.0285 29.017 23.7553 28.575 21.3976ZM10.2359 9.10078C9.84592 9.10075 9.45973 9.03318 9.09941 8.9019C8.73909 8.77062 8.4117 8.57821 8.13593 8.33566C7.86017 8.09311 7.64142 7.80516 7.49219 7.48827C7.34296 7.17137 7.26616 6.83173 7.26619 6.48873C7.26621 6.14573 7.34305 5.80609 7.49233 5.48921C7.6416 5.17233 7.86039 4.88441 8.13619 4.64189C8.41199 4.39936 8.7394 4.20699 9.09974 4.07575C9.46008 3.94451 9.84628 3.87697 10.2363 3.87699C11.024 3.87703 11.7794 4.15225 12.3363 4.64211C12.8932 5.13196 13.2061 5.79632 13.206 6.48904C13.206 7.18176 12.8931 7.84609 12.3361 8.33588C11.779 8.82568 11.0236 9.10082 10.2359 9.10078ZM23.3021 24.7712C22.9121 24.7712 22.5259 24.7036 22.1656 24.5723C21.8053 24.441 21.4779 24.2486 21.2021 24.0061C20.9264 23.7635 20.7076 23.4756 20.5584 23.1587C20.4092 22.8418 20.3324 22.5021 20.3324 22.1591C20.3324 21.8161 20.4093 21.4765 20.5585 21.1596C20.7078 20.8427 20.9266 20.5548 21.2024 20.3123C21.4782 20.0698 21.8056 19.8774 22.1659 19.7462C22.5263 19.6149 22.9125 19.5474 23.3025 19.5474C24.0902 19.5474 24.8456 19.8227 25.4025 20.3125C25.9594 20.8024 26.2723 21.4667 26.2722 22.1595C26.2722 22.8522 25.9593 23.5165 25.4022 24.0063C24.8452 24.4961 24.0898 24.7712 23.3021 24.7712Z" fill="black"/>
</svg>
