<svg width="1440" height="866" viewBox="0 0 1440 866" fill="none" xmlns="http://www.w3.org/2000/svg">
<path d="M2408.81 912.469C2370.93 1001.71 2264.03 1052.41 2120.52 1061.4C1977.18 1070.39 1798.13 1037.65 1617.41 960.941C1436.7 884.233 1288.77 778.172 1195.66 668.82C1102.44 559.341 1064.66 447.228 1102.53 357.99C1140.41 268.752 1247.31 218.048 1390.82 209.056C1534.16 200.073 1713.21 232.809 1893.93 309.518C2074.64 386.226 2222.57 492.287 2315.68 601.639C2408.9 711.118 2446.69 823.231 2408.81 912.469Z" stroke="#FF88B7" stroke-width="5"/>
<path d="M405.264 636.322C368.268 723.48 276.972 778.287 158.535 796C40.146 813.705 -104.935 794.244 -248.575 733.272C-392.215 672.301 -506.996 581.457 -576.499 483.996C-646.031 386.495 -670.026 282.75 -633.03 195.593C-596.034 108.435 -504.737 53.628 -386.3 35.9153C-267.912 18.2098 -122.831 37.6714 20.8092 98.6429C164.449 159.614 279.23 250.458 348.734 347.919C418.266 445.419 442.26 549.164 405.264 636.322Z" stroke="#C2A4F8" stroke-width="5"/>
</svg>
